<svg width="1602" height="594" viewBox="0 0 1602 594" fill="none" xmlns="http://www.w3.org/2000/svg">
<path d="M98.998 578C35.6105 514.613 0 428.642 0 338.999C0 249.356 35.6105 163.385 98.998 99.998C162.385 36.6105 248.356 1 337.999 1C427.642 1 513.613 36.6105 577 99.998L481.4 195.598C443.367 157.566 391.784 136.2 337.999 136.2C284.213 136.2 232.63 157.566 194.598 195.598C156.566 233.63 135.2 285.213 135.2 338.999C135.2 392.784 156.566 444.367 194.598 482.4L98.998 578Z" fill="white"/>
<path d="M194.598 482.4C232.63 520.432 284.213 541.798 337.999 541.798C391.784 541.798 443.367 520.432 481.399 482.4C519.432 444.367 540.798 392.785 540.798 338.999C540.798 285.213 519.432 233.63 481.4 195.598L424.039 252.959C446.858 275.778 459.678 306.728 459.678 338.999C459.678 371.27 446.858 402.22 424.039 425.039C401.22 447.859 370.27 460.679 337.999 460.679C305.727 460.679 274.777 447.859 251.958 425.039L194.598 482.4Z" fill="white"/>
<path d="M251.958 425.039C229.139 402.22 216.319 371.27 216.319 338.999C216.319 306.728 229.139 275.778 251.958 252.959C274.777 230.139 305.727 217.319 337.999 217.319C370.27 217.319 401.22 230.139 424.039 252.959L389.623 287.375C375.931 273.683 357.361 265.991 337.999 265.991C318.636 265.991 300.066 273.683 286.374 287.375C272.683 301.066 264.991 319.636 264.991 338.999C264.991 358.362 272.683 376.932 286.374 390.623L251.958 425.039Z" fill="white"/>
<path d="M306.132 370.866C323.731 388.465 352.266 388.465 369.865 370.866C387.465 353.266 387.465 324.732 369.865 307.132C352.266 289.533 323.731 289.533 306.132 307.132C288.532 324.732 288.532 353.266 306.132 370.866Z" fill="white"/>
</svg>
